<svg width="942" height="448" viewBox="0 0 942 448" fill="none" xmlns="http://www.w3.org/2000/svg">
<rect width="942" height="448" fill="white"/>
<rect x="145.5" y="112.5" width="114" height="47" fill="white"/>
<rect x="145.5" y="112.5" width="114" height="47" stroke="#0F62FE"/>
<rect x="146" y="113" width="113" height="46" fill="white"/>
<g clip-path="url(#clip0_1935_32795)">
<text fill="black" xml:space="preserve" style="white-space: pre" font-family="Arial" font-size="14" font-weight="bold" letter-spacing="0.16px"><tspan x="161" y="140.854">Question</tspan></text>
</g>
<rect width="48" height="74" transform="translate(49 111.629)" fill="white" fill-opacity="0.01" style="mix-blend-mode:multiply"/>
<rect width="48" height="48" transform="translate(49 111.629)" fill="#0F62FE"/>
<rect width="24" height="24" transform="translate(61 123.629)" fill="white" fill-opacity="0.01" style="mix-blend-mode:multiply"/>
<path d="M73 126.629C73.7417 126.629 74.4667 126.849 75.0834 127.261C75.7001 127.673 76.1807 128.259 76.4645 128.944C76.7484 129.629 76.8226 130.383 76.6779 131.111C76.5333 131.838 76.1761 132.507 75.6517 133.031C75.1272 133.555 74.459 133.913 73.7316 134.057C73.0042 134.202 72.2502 134.128 71.5649 133.844C70.8797 133.56 70.294 133.079 69.882 132.463C69.4699 131.846 69.25 131.121 69.25 130.379C69.25 129.385 69.6451 128.431 70.3483 127.728C71.0516 127.024 72.0054 126.629 73 126.629ZM73 125.129C71.9616 125.129 70.9466 125.437 70.0833 126.014C69.2199 126.591 68.547 127.411 68.1496 128.37C67.7523 129.33 67.6483 130.385 67.8509 131.404C68.0534 132.422 68.5535 133.357 69.2877 134.092C70.0219 134.826 70.9574 135.326 71.9758 135.528C72.9942 135.731 74.0498 135.627 75.0091 135.23C75.9684 134.832 76.7883 134.159 77.3652 133.296C77.9421 132.433 78.25 131.418 78.25 130.379C78.25 128.987 77.6969 127.652 76.7123 126.667C75.7277 125.682 74.3924 125.129 73 125.129Z" fill="white"/>
<path d="M80.5 146.129H79V142.379C79 141.887 78.903 141.399 78.7145 140.944C78.5261 140.489 78.2499 140.076 77.9017 139.728C77.5534 139.379 77.14 139.103 76.6851 138.915C76.2301 138.726 75.7425 138.629 75.25 138.629H70.75C69.7554 138.629 68.8016 139.024 68.0983 139.728C67.3951 140.431 67 141.385 67 142.379V146.129H65.5V142.379C65.5 140.987 66.0531 139.652 67.0377 138.667C68.0223 137.682 69.3576 137.129 70.75 137.129H75.25C76.6424 137.129 77.9777 137.682 78.9623 138.667C79.9469 139.652 80.5 140.987 80.5 142.379V146.129Z" fill="white"/>
<text fill="black" xml:space="preserve" style="white-space: pre" font-family="Arial" font-size="14" font-weight="bold" letter-spacing="0.16px"><tspan x="57.1809" y="181.483">User</tspan></text>
<rect x="146.5" y="208.5" width="114" height="47" fill="white"/>
<rect x="146.5" y="208.5" width="114" height="47" stroke="#0F62FE"/>
<rect x="147" y="209" width="113" height="46" fill="white"/>
<g clip-path="url(#clip1_1935_32795)">
<text fill="black" xml:space="preserve" style="white-space: pre" font-family="Arial" font-size="14" font-weight="bold" letter-spacing="0.16px"><tspan x="162" y="236.854">Search</tspan></text>
</g>
<rect x="146.5" y="304.129" width="190" height="95" fill="white"/>
<rect x="146.5" y="304.129" width="190" height="95" stroke="#0F62FE"/>
<rect x="147" y="304.629" width="189" height="94" fill="white"/>
<g clip-path="url(#clip2_1935_32795)">
<text fill="black" xml:space="preserve" style="white-space: pre" font-family="Arial" font-size="14" font-weight="bold" letter-spacing="0.16px"><tspan x="162" y="332.483">Company docs</tspan></text>
</g>
<rect x="288.5" y="208.5" width="182" height="47" fill="white"/>
<rect x="288.5" y="208.5" width="182" height="47" stroke="#0F62FE"/>
<rect x="289" y="209" width="181" height="46" fill="white"/>
<g clip-path="url(#clip3_1935_32795)">
<text fill="black" xml:space="preserve" style="white-space: pre" font-family="Arial" font-size="14" font-weight="bold" letter-spacing="0.16px"><tspan x="304" y="236.854">Top search results</tspan></text>
</g>
<rect x="296.5" y="76.5" width="196" height="83" fill="white"/>
<rect x="296.5" y="76.5" width="196" height="83" stroke="#0F62FE"/>
<rect x="297" y="77" width="195" height="82" fill="white"/>
<g clip-path="url(#clip4_1935_32795)">
<text fill="black" xml:space="preserve" style="white-space: pre" font-family="Arial" font-size="14" font-weight="bold" letter-spacing="0.16px"><tspan x="312" y="104.854">Input = Instruction + </tspan><tspan x="312" y="122.854">search results + &#x2028;</tspan><tspan x="312" y="140.854">question</tspan></text>
</g>
<rect x="733.5" y="95.5" width="159" height="47" fill="white"/>
<rect x="733.5" y="95.5" width="159" height="47" stroke="#0F62FE"/>
<rect x="734" y="96" width="158" height="46" fill="white"/>
<g clip-path="url(#clip5_1935_32795)">
<text fill="black" xml:space="preserve" style="white-space: pre" font-family="Arial" font-size="14" font-weight="bold" letter-spacing="0.16px"><tspan x="749" y="123.854">Factual answer</tspan></text>
</g>
<rect width="48" height="8" transform="translate(198 159.629) rotate(90)" fill="white" fill-opacity="0.01" style="mix-blend-mode:multiply"/>
<g clip-path="url(#clip6_1935_32795)">
<rect width="41" height="0" transform="translate(194 159.629) rotate(90)" fill="white" fill-opacity="0.01" style="mix-blend-mode:multiply"/>
<path d="M194 159.629L194 200.629" stroke="black"/>
</g>
<rect width="8" height="8" transform="translate(198 199.629) rotate(90)" fill="white" fill-opacity="0.01" style="mix-blend-mode:multiply"/>
<path d="M198 199.629L194 207.629L190 199.629L198 199.629Z" fill="black"/>
<rect width="48" height="8" transform="translate(198 255.629) rotate(90)" fill="white" fill-opacity="0.01" style="mix-blend-mode:multiply"/>
<g clip-path="url(#clip7_1935_32795)">
<rect width="41" height="0" transform="translate(194 255.629) rotate(90)" fill="white" fill-opacity="0.01" style="mix-blend-mode:multiply"/>
<path d="M194 255.629L194 296.629" stroke="black"/>
</g>
<rect width="8" height="8" transform="translate(198 295.629) rotate(90)" fill="white" fill-opacity="0.01" style="mix-blend-mode:multiply"/>
<path d="M198 295.629L194 303.629L190 295.629L198 295.629Z" fill="black"/>
<rect width="48" height="8" transform="translate(360.5 207.629) rotate(-90)" fill="white" fill-opacity="0.01" style="mix-blend-mode:multiply"/>
<g clip-path="url(#clip8_1935_32795)">
<rect width="41" height="0" transform="translate(364.5 207.629) rotate(-90)" fill="white" fill-opacity="0.01" style="mix-blend-mode:multiply"/>
<path d="M364.5 207.629L364.5 166.629" stroke="black"/>
</g>
<rect width="8" height="8" transform="translate(360.5 167.629) rotate(-90)" fill="white" fill-opacity="0.01" style="mix-blend-mode:multiply"/>
<path d="M360.5 167.629L364.5 159.629L368.5 167.629L360.5 167.629Z" fill="black"/>
<rect width="48" height="8" transform="translate(493 113.629)" fill="white" fill-opacity="0.01" style="mix-blend-mode:multiply"/>
<rect width="41" height="0" transform="translate(493 117.629)" fill="white" fill-opacity="0.01" style="mix-blend-mode:multiply"/>
<path d="M493 117.629H534" stroke="black"/>
<rect width="8" height="8" transform="translate(533 113.629)" fill="white" fill-opacity="0.01" style="mix-blend-mode:multiply"/>
<path d="M533 113.629L541 117.629L533 121.629V113.629Z" fill="black"/>
<rect width="48" height="8" transform="translate(97 129.629)" fill="white" fill-opacity="0.01" style="mix-blend-mode:multiply"/>
<rect width="41" height="0" transform="translate(97 133.629)" fill="white" fill-opacity="0.01" style="mix-blend-mode:multiply"/>
<path d="M97 133.629H138" stroke="black"/>
<rect width="8" height="8" transform="translate(137 129.629)" fill="white" fill-opacity="0.01" style="mix-blend-mode:multiply"/>
<path d="M137 129.629L145 133.629L137 137.629V129.629Z" fill="black"/>
<rect width="48" height="8" transform="translate(685 113.629)" fill="white" fill-opacity="0.01" style="mix-blend-mode:multiply"/>
<rect width="41" height="0" transform="translate(685 117.629)" fill="white" fill-opacity="0.01" style="mix-blend-mode:multiply"/>
<path d="M685 117.629H726" stroke="black"/>
<rect width="8" height="8" transform="translate(725 113.629)" fill="white" fill-opacity="0.01" style="mix-blend-mode:multiply"/>
<path d="M725 113.629L733 117.629L725 121.629V113.629Z" fill="black"/>
<rect width="32" height="32" transform="translate(163 350.629)" fill="white" fill-opacity="0.01" style="mix-blend-mode:multiply"/>
<path d="M191 381.989H167C166.801 381.989 166.64 381.828 166.64 381.629V351.629C166.64 351.43 166.801 351.269 167 351.269H185C185.096 351.269 185.188 351.307 185.255 351.374L191.255 357.374C191.322 357.442 191.36 357.533 191.36 357.629V381.629C191.36 381.828 191.199 381.989 191 381.989ZM167.36 381.269H190.64V357.989H185C184.801 357.989 184.64 357.828 184.64 357.629V351.989H167.36V381.269ZM185.36 357.269H190.131L185.36 352.498V357.269ZM187 377.989H171V377.269H187V377.989ZM187 373.989H171V373.269H187V373.989ZM187 369.989H171V369.269H187V369.989ZM187 365.989H171V365.269H187V365.989ZM187 361.989H171V361.269H187V361.989Z" fill="#161616"/>
<rect width="32" height="32" transform="translate(275 350.629)" fill="white" fill-opacity="0.01" style="mix-blend-mode:multiply"/>
<path d="M292 376.989H276C275.801 376.989 275.64 376.828 275.64 376.629V369.629C275.64 369.43 275.801 369.269 276 369.269H292V369.99H276.36V376.269H292V376.989ZM292 367.989H276C275.801 367.989 275.64 367.828 275.64 367.629V360.629C275.64 360.43 275.801 360.269 276 360.269H301C301.199 360.269 301.36 360.43 301.36 360.629V363.629H300.64V360.989H276.36V367.269H292V367.989ZM301 358.989H276C275.801 358.989 275.64 358.828 275.64 358.629V351.629C275.64 351.43 275.801 351.269 276 351.269H301C301.199 351.269 301.36 351.43 301.36 351.629V358.629C301.36 358.828 301.199 358.989 301 358.989ZM276.36 358.269H300.64V351.989H276.36V358.269ZM297 365.129C296.448 365.129 296 364.681 296 364.129C296 363.577 296.448 363.129 297 363.129C297.552 363.129 298 363.577 298 364.129C298 364.681 297.552 365.129 297 365.129ZM298 355.129C298 354.577 297.552 354.129 297 354.129C296.448 354.129 296 354.577 296 355.129C296 355.681 296.448 356.129 297 356.129C297.552 356.129 298 355.681 298 355.129ZM300 381.989C296.493 381.989 293.64 379.135 293.64 375.629V368.406L300 365.226L306.36 368.406V375.629C306.36 379.136 303.507 381.989 300 381.989ZM294.36 368.852V375.629C294.36 378.739 296.889 381.269 300 381.269C303.111 381.269 305.64 378.74 305.64 375.629V368.852L300 366.031L294.36 368.852Z" fill="#161616"/>
<rect width="32" height="32" transform="translate(219 350.629)" fill="white" fill-opacity="0.01" style="mix-blend-mode:multiply"/>
<path d="M245 356.629C244.448 356.629 244 356.181 244 355.629C244 355.077 244.448 354.629 245 354.629C245.552 354.629 246 355.077 246 355.629C246 356.181 245.552 356.629 245 356.629ZM246 366.629C246 366.077 245.552 365.629 245 365.629C244.448 365.629 244 366.077 244 366.629C244 367.181 244.448 367.629 245 367.629C245.552 367.629 246 367.181 246 366.629ZM246 377.629C246 377.077 245.552 376.629 245 376.629C244.448 376.629 244 377.077 244 377.629C244 378.181 244.448 378.629 245 378.629C245.552 378.629 246 378.181 246 377.629ZM250 381.989H220C219.801 381.989 219.64 381.828 219.64 381.629V373.629C219.64 373.43 219.801 373.269 220 373.269H250C250.199 373.269 250.36 373.43 250.36 373.629V381.629C250.36 381.828 250.199 381.989 250 381.989ZM220.36 381.269H249.64V373.989H220.36V381.269ZM250 370.989H220C219.801 370.989 219.64 370.828 219.64 370.629V362.629C219.64 362.43 219.801 362.269 220 362.269H250C250.199 362.269 250.36 362.43 250.36 362.629V370.629C250.36 370.828 250.199 370.989 250 370.989ZM220.36 370.269H249.64V362.989H220.36V370.269ZM250 359.989H220C219.801 359.989 219.64 359.828 219.64 359.629V351.629C219.64 351.43 219.801 351.269 220 351.269H250C250.199 351.269 250.36 351.43 250.36 351.629V359.629C250.36 359.828 250.199 359.989 250 359.989ZM220.36 359.269H249.64V351.989H220.36V359.269Z" fill="#161616"/>
<rect width="32" height="89" transform="translate(369 352.629) rotate(-180)" fill="white" fill-opacity="0.01" style="mix-blend-mode:multiply"/>
<rect width="32" height="89" transform="translate(369 352.629) rotate(-180)" fill="white" fill-opacity="0.01" style="mix-blend-mode:multiply"/>
<path d="M337 352.629L369 352.629L369 263.629" stroke="black"/>
<rect width="8" height="8" transform="matrix(8.74228e-08 -1 -1 -8.74228e-08 373 263.629)" fill="white" fill-opacity="0.01" style="mix-blend-mode:multiply"/>
<path d="M373 263.629L369 255.629L365 263.629L373 263.629Z" fill="black"/>
<circle cx="613.168" cy="120.274" r="71.4029" fill="#DEFBE6" stroke="#198038"/>
<text fill="black" xml:space="preserve" style="white-space: pre" font-family="Arial" font-size="14" font-weight="bold" letter-spacing="0.16px"><tspan x="574.237" y="116.473">Foundation </tspan><tspan x="592.613" y="134.473">Model</tspan></text>
<defs>
<clipPath id="clip0_1935_32795">
<rect width="115" height="48" fill="white" transform="translate(145 112)"/>
</clipPath>
<clipPath id="clip1_1935_32795">
<rect width="115" height="48" fill="white" transform="translate(146 208)"/>
</clipPath>
<clipPath id="clip2_1935_32795">
<rect width="191" height="48" fill="white" transform="translate(146 303.629)"/>
</clipPath>
<clipPath id="clip3_1935_32795">
<rect width="183" height="48" fill="white" transform="translate(288 208)"/>
</clipPath>
<clipPath id="clip4_1935_32795">
<rect width="197" height="84" fill="white" transform="translate(296 76)"/>
</clipPath>
<clipPath id="clip5_1935_32795">
<rect width="160" height="48" fill="white" transform="translate(733 95)"/>
</clipPath>
<clipPath id="clip6_1935_32795">
<rect width="41" height="8" fill="white" transform="translate(198 159.629) rotate(90)"/>
</clipPath>
<clipPath id="clip7_1935_32795">
<rect width="41" height="8" fill="white" transform="translate(198 255.629) rotate(90)"/>
</clipPath>
<clipPath id="clip8_1935_32795">
<rect width="41" height="8" fill="white" transform="translate(360.5 207.629) rotate(-90)"/>
</clipPath>
</defs>
</svg>
